<?xml version="1.0" encoding="UTF-8" standalone="no"?>
<!-- Created with Inkscape (http://www.inkscape.org/) -->

<svg
   xmlns:dc="http://purl.org/dc/elements/1.1/"
   xmlns:cc="http://creativecommons.org/ns#"
   xmlns:rdf="http://www.w3.org/1999/02/22-rdf-syntax-ns#"
   xmlns:svg="http://www.w3.org/2000/svg"
   xmlns="http://www.w3.org/2000/svg"
   xmlns:xlink="http://www.w3.org/1999/xlink"
   xmlns:sodipodi="http://sodipodi.sourceforge.net/DTD/sodipodi-0.dtd"
   xmlns:inkscape="http://www.inkscape.org/namespaces/inkscape"
   width="256"
   height="256"
   viewBox="0 0 256 256"
   id="svg4136"
   version="1.1"
   inkscape:version="0.91 r13725"
   sodipodi:docname="icon.svg"
   inkscape:export-filename="/Users/desheffer/Desktop/equalizer/256.png"
   inkscape:export-xdpi="89.999977"
   inkscape:export-ydpi="89.999977">
  <defs
     id="defs4138">
    <linearGradient
       inkscape:collect="always"
       id="linearGradient4137">
      <stop
         style="stop-color:#1abc9f;stop-opacity:1;"
         offset="0"
         id="stop4139" />
      <stop
         style="stop-color:#16a085;stop-opacity:1"
         offset="1"
         id="stop4141" />
    </linearGradient>
    <linearGradient
       inkscape:collect="always"
       xlink:href="#linearGradient4137"
       id="linearGradient4143"
       x1="128"
       y1="796.36218"
       x2="128"
       y2="1052.3622"
       gradientUnits="userSpaceOnUse" />
    <mask
       maskUnits="userSpaceOnUse"
       id="mask4174">
      <path
         sodipodi:nodetypes="cscczcczcczcczccsc"
         inkscape:connector-curvature="0"
         id="path4176"
         d="m 0,924.26216 48,0 c 16,0 16,16 16,16 l 0,32 c 0,0 0,16 16,16 16,0 16,-16 16,-16 l 0,-152 c 0,0 0,-16 16,-16 16,0 16,16 16,16 l 0,208.00004 c 0,0 0,16 16,16 16,0 16,-16 16,-16 l 0,-152.00004 c 0,0 0,-16 16,-16 16,0 16,16 16,16 l 0,32 c 0,0 0,16 16,16 l 48,0"
         style="fill:none;fill-rule:evenodd;stroke:#ffffff;stroke-width:16;stroke-linecap:butt;stroke-linejoin:round;stroke-miterlimit:4;stroke-dasharray:none;stroke-opacity:1" />
    </mask>
  </defs>
  <sodipodi:namedview
     id="base"
     pagecolor="#ffffff"
     bordercolor="#666666"
     borderopacity="1.0"
     inkscape:pageopacity="0.0"
     inkscape:pageshadow="2"
     inkscape:zoom="3.140625"
     inkscape:cx="128"
     inkscape:cy="128"
     inkscape:document-units="px"
     inkscape:current-layer="layer1"
     showgrid="true"
     units="px"
     inkscape:window-width="1413"
     inkscape:window-height="954"
     inkscape:window-x="1398"
     inkscape:window-y="0"
     inkscape:window-maximized="0"
     showguides="false">
    <inkscape:grid
       type="xygrid"
       id="grid4751" />
  </sodipodi:namedview>
  <metadata
     id="metadata4141">
    <rdf:RDF>
      <cc:Work
         rdf:about="">
        <dc:format>image/svg+xml</dc:format>
        <dc:type
           rdf:resource="http://purl.org/dc/dcmitype/StillImage" />
        <dc:title></dc:title>
      </cc:Work>
    </rdf:RDF>
  </metadata>
  <g
     inkscape:label="Layer 1"
     inkscape:groupmode="layer"
     id="layer1"
     transform="translate(0,-796.36216)">
    <rect
       style="fill:url(#linearGradient4143);fill-opacity:1;stroke:none;stroke-opacity:1"
       id="rect4135"
       width="256"
       height="256"
       x="0"
       y="796.36218"
       mask="url(#mask4174)" />
  </g>
</svg>
